<mxfile host="app.diagrams.net" agent="Mozilla/5.0 (Windows NT 10.0; Win64; x64) AppleWebKit/537.36 (KHTML, like Gecko) Chrome/130.0.0.0 Safari/537.36" version="24.8.3">
  <diagram name="Page-1" id="50tHilkLwmnVffJWbjMd">
    <mxGraphModel grid="1" page="1" gridSize="10" guides="1" tooltips="1" connect="1" arrows="1" fold="1" pageScale="1" pageWidth="850" pageHeight="1100" math="0" shadow="0">
      <root>
        <mxCell id="0" />
        <mxCell id="1" parent="0" />
        <mxCell id="QrAsHvjf3ktt1GE1jGP0-29" value="" style="rounded=0;whiteSpace=wrap;html=1;" vertex="1" parent="1">
          <mxGeometry x="-250" y="90" width="410" height="260" as="geometry" />
        </mxCell>
        <mxCell id="QrAsHvjf3ktt1GE1jGP0-53" style="edgeStyle=orthogonalEdgeStyle;rounded=0;orthogonalLoop=1;jettySize=auto;html=1;exitX=1;exitY=0.75;exitDx=0;exitDy=0;entryX=1;entryY=0.5;entryDx=0;entryDy=0;" edge="1" parent="1" source="QrAsHvjf3ktt1GE1jGP0-29" target="QrAsHvjf3ktt1GE1jGP0-9">
          <mxGeometry relative="1" as="geometry">
            <Array as="points">
              <mxPoint x="140" y="285" />
              <mxPoint x="140" y="290" />
            </Array>
          </mxGeometry>
        </mxCell>
        <mxCell id="QrAsHvjf3ktt1GE1jGP0-45" style="edgeStyle=orthogonalEdgeStyle;rounded=0;orthogonalLoop=1;jettySize=auto;html=1;exitX=0.75;exitY=0;exitDx=0;exitDy=0;entryX=0.75;entryY=1;entryDx=0;entryDy=0;" edge="1" parent="1" source="QrAsHvjf3ktt1GE1jGP0-30" target="QrAsHvjf3ktt1GE1jGP0-29">
          <mxGeometry relative="1" as="geometry" />
        </mxCell>
        <mxCell id="QrAsHvjf3ktt1GE1jGP0-30" value="" style="rounded=0;whiteSpace=wrap;html=1;" vertex="1" parent="1">
          <mxGeometry x="-240" y="390" width="410" height="190" as="geometry" />
        </mxCell>
        <mxCell id="QrAsHvjf3ktt1GE1jGP0-34" style="edgeStyle=orthogonalEdgeStyle;rounded=0;orthogonalLoop=1;jettySize=auto;html=1;exitX=1;exitY=0.25;exitDx=0;exitDy=0;entryX=1;entryY=0.25;entryDx=0;entryDy=0;" edge="1" parent="1" source="QrAsHvjf3ktt1GE1jGP0-29" target="QrAsHvjf3ktt1GE1jGP0-30">
          <mxGeometry relative="1" as="geometry" />
        </mxCell>
        <mxCell id="QrAsHvjf3ktt1GE1jGP0-35" style="edgeStyle=orthogonalEdgeStyle;rounded=0;orthogonalLoop=1;jettySize=auto;html=1;exitX=1;exitY=0.25;exitDx=0;exitDy=0;entryX=1;entryY=0.25;entryDx=0;entryDy=0;" edge="1" parent="1" source="QrAsHvjf3ktt1GE1jGP0-29" target="QrAsHvjf3ktt1GE1jGP0-31">
          <mxGeometry relative="1" as="geometry" />
        </mxCell>
        <mxCell id="QrAsHvjf3ktt1GE1jGP0-40" style="edgeStyle=orthogonalEdgeStyle;rounded=0;orthogonalLoop=1;jettySize=auto;html=1;exitX=0;exitY=0.25;exitDx=0;exitDy=0;entryX=0;entryY=0.25;entryDx=0;entryDy=0;" edge="1" parent="1" source="QrAsHvjf3ktt1GE1jGP0-29" target="QrAsHvjf3ktt1GE1jGP0-30">
          <mxGeometry relative="1" as="geometry" />
        </mxCell>
        <mxCell id="QrAsHvjf3ktt1GE1jGP0-46" style="edgeStyle=orthogonalEdgeStyle;rounded=0;orthogonalLoop=1;jettySize=auto;html=1;exitX=0.75;exitY=1;exitDx=0;exitDy=0;entryX=0.5;entryY=1;entryDx=0;entryDy=0;" edge="1" parent="1" source="QrAsHvjf3ktt1GE1jGP0-29" target="QrAsHvjf3ktt1GE1jGP0-9">
          <mxGeometry relative="1" as="geometry">
            <Array as="points">
              <mxPoint x="57" y="340" />
              <mxPoint x="60" y="340" />
            </Array>
          </mxGeometry>
        </mxCell>
        <mxCell id="QrAsHvjf3ktt1GE1jGP0-41" style="edgeStyle=orthogonalEdgeStyle;rounded=0;orthogonalLoop=1;jettySize=auto;html=1;exitX=0;exitY=0.25;exitDx=0;exitDy=0;entryX=0;entryY=0.5;entryDx=0;entryDy=0;" edge="1" parent="1" source="QrAsHvjf3ktt1GE1jGP0-30" target="QrAsHvjf3ktt1GE1jGP0-14">
          <mxGeometry relative="1" as="geometry">
            <Array as="points">
              <mxPoint x="-210" y="437" />
              <mxPoint x="-210" y="480" />
            </Array>
          </mxGeometry>
        </mxCell>
        <mxCell id="QrAsHvjf3ktt1GE1jGP0-42" style="edgeStyle=orthogonalEdgeStyle;rounded=0;orthogonalLoop=1;jettySize=auto;html=1;exitX=0;exitY=0.25;exitDx=0;exitDy=0;entryX=0.5;entryY=0;entryDx=0;entryDy=0;" edge="1" parent="1" source="QrAsHvjf3ktt1GE1jGP0-30" target="QrAsHvjf3ktt1GE1jGP0-11">
          <mxGeometry relative="1" as="geometry">
            <Array as="points">
              <mxPoint x="-60" y="437" />
              <mxPoint x="50" y="437" />
            </Array>
          </mxGeometry>
        </mxCell>
        <mxCell id="QrAsHvjf3ktt1GE1jGP0-52" style="edgeStyle=orthogonalEdgeStyle;rounded=0;orthogonalLoop=1;jettySize=auto;html=1;exitX=0.5;exitY=1;exitDx=0;exitDy=0;entryX=1;entryY=0.75;entryDx=0;entryDy=0;" edge="1" parent="1" source="QrAsHvjf3ktt1GE1jGP0-31" target="QrAsHvjf3ktt1GE1jGP0-29">
          <mxGeometry relative="1" as="geometry">
            <Array as="points">
              <mxPoint x="-35" y="820" />
              <mxPoint x="210" y="820" />
              <mxPoint x="210" y="285" />
            </Array>
          </mxGeometry>
        </mxCell>
        <mxCell id="QrAsHvjf3ktt1GE1jGP0-31" value="" style="rounded=0;whiteSpace=wrap;html=1;" vertex="1" parent="1">
          <mxGeometry x="-240" y="610" width="410" height="190" as="geometry" />
        </mxCell>
        <mxCell id="QrAsHvjf3ktt1GE1jGP0-25" value="" style="rounded=0;whiteSpace=wrap;html=1;" vertex="1" parent="1">
          <mxGeometry x="-1030" y="160" width="650" height="460" as="geometry" />
        </mxCell>
        <mxCell id="QrAsHvjf3ktt1GE1jGP0-67" style="edgeStyle=orthogonalEdgeStyle;rounded=0;orthogonalLoop=1;jettySize=auto;html=1;exitX=1;exitY=0.25;exitDx=0;exitDy=0;entryX=0;entryY=0.5;entryDx=0;entryDy=0;strokeColor=default;startArrow=classic;startFill=1;" edge="1" parent="1" source="QrAsHvjf3ktt1GE1jGP0-1" target="QrAsHvjf3ktt1GE1jGP0-7">
          <mxGeometry relative="1" as="geometry" />
        </mxCell>
        <mxCell id="QrAsHvjf3ktt1GE1jGP0-68" style="edgeStyle=orthogonalEdgeStyle;rounded=0;orthogonalLoop=1;jettySize=auto;html=1;exitX=1;exitY=0.75;exitDx=0;exitDy=0;entryX=0;entryY=0.5;entryDx=0;entryDy=0;strokeColor=default;startArrow=classic;startFill=1;" edge="1" parent="1" source="QrAsHvjf3ktt1GE1jGP0-1" target="QrAsHvjf3ktt1GE1jGP0-6">
          <mxGeometry relative="1" as="geometry" />
        </mxCell>
        <mxCell id="QrAsHvjf3ktt1GE1jGP0-69" style="edgeStyle=orthogonalEdgeStyle;rounded=0;orthogonalLoop=1;jettySize=auto;html=1;exitX=0.75;exitY=1;exitDx=0;exitDy=0;entryX=0.5;entryY=0;entryDx=0;entryDy=0;strokeColor=default;startArrow=classic;startFill=1;" edge="1" parent="1" source="QrAsHvjf3ktt1GE1jGP0-1" target="QrAsHvjf3ktt1GE1jGP0-4">
          <mxGeometry relative="1" as="geometry" />
        </mxCell>
        <mxCell id="QrAsHvjf3ktt1GE1jGP0-70" style="edgeStyle=orthogonalEdgeStyle;rounded=0;orthogonalLoop=1;jettySize=auto;html=1;exitX=0.25;exitY=1;exitDx=0;exitDy=0;entryX=0.5;entryY=0;entryDx=0;entryDy=0;strokeColor=default;startArrow=classic;startFill=1;" edge="1" parent="1" source="QrAsHvjf3ktt1GE1jGP0-1" target="QrAsHvjf3ktt1GE1jGP0-3">
          <mxGeometry relative="1" as="geometry" />
        </mxCell>
        <mxCell id="QrAsHvjf3ktt1GE1jGP0-1" value="Compute + GHz wireless" style="rounded=0;whiteSpace=wrap;html=1;" vertex="1" parent="1">
          <mxGeometry x="-770" y="370" width="120" height="60" as="geometry" />
        </mxCell>
        <mxCell id="QrAsHvjf3ktt1GE1jGP0-66" style="edgeStyle=orthogonalEdgeStyle;rounded=0;orthogonalLoop=1;jettySize=auto;html=1;exitX=0.5;exitY=1;exitDx=0;exitDy=0;entryX=0.5;entryY=0;entryDx=0;entryDy=0;" edge="1" parent="1" source="QrAsHvjf3ktt1GE1jGP0-2" target="QrAsHvjf3ktt1GE1jGP0-1">
          <mxGeometry relative="1" as="geometry" />
        </mxCell>
        <mxCell id="QrAsHvjf3ktt1GE1jGP0-2" value="Power System" style="rounded=0;whiteSpace=wrap;html=1;" vertex="1" parent="1">
          <mxGeometry x="-770" y="220" width="120" height="60" as="geometry" />
        </mxCell>
        <mxCell id="QrAsHvjf3ktt1GE1jGP0-3" value="RF Module" style="rounded=0;whiteSpace=wrap;html=1;" vertex="1" parent="1">
          <mxGeometry x="-850" y="510" width="120" height="60" as="geometry" />
        </mxCell>
        <mxCell id="QrAsHvjf3ktt1GE1jGP0-4" value="RFID/NFC module" style="rounded=0;whiteSpace=wrap;html=1;" vertex="1" parent="1">
          <mxGeometry x="-680" y="510" width="120" height="60" as="geometry" />
        </mxCell>
        <mxCell id="QrAsHvjf3ktt1GE1jGP0-71" style="edgeStyle=orthogonalEdgeStyle;rounded=0;orthogonalLoop=1;jettySize=auto;html=1;exitX=1;exitY=0.5;exitDx=0;exitDy=0;entryX=0;entryY=0.75;entryDx=0;entryDy=0;strokeColor=default;startArrow=classic;startFill=1;" edge="1" parent="1" source="QrAsHvjf3ktt1GE1jGP0-5" target="QrAsHvjf3ktt1GE1jGP0-1">
          <mxGeometry relative="1" as="geometry" />
        </mxCell>
        <mxCell id="QrAsHvjf3ktt1GE1jGP0-5" value="User Interface system (serial, display, button)" style="rounded=0;whiteSpace=wrap;html=1;" vertex="1" parent="1">
          <mxGeometry x="-990" y="420" width="120" height="60" as="geometry" />
        </mxCell>
        <mxCell id="QrAsHvjf3ktt1GE1jGP0-6" value="GPIO Module&amp;nbsp;&lt;div&gt;(IR, GPIO)&lt;/div&gt;" style="rounded=0;whiteSpace=wrap;html=1;" vertex="1" parent="1">
          <mxGeometry x="-545" y="410" width="120" height="60" as="geometry" />
        </mxCell>
        <mxCell id="QrAsHvjf3ktt1GE1jGP0-7" value="Storage system" style="rounded=0;whiteSpace=wrap;html=1;" vertex="1" parent="1">
          <mxGeometry x="-545" y="290" width="120" height="60" as="geometry" />
        </mxCell>
        <mxCell id="QrAsHvjf3ktt1GE1jGP0-72" style="edgeStyle=orthogonalEdgeStyle;rounded=0;orthogonalLoop=1;jettySize=auto;html=1;exitX=1;exitY=0.5;exitDx=0;exitDy=0;entryX=0;entryY=0.25;entryDx=0;entryDy=0;strokeColor=default;startArrow=classic;startFill=1;" edge="1" parent="1" source="QrAsHvjf3ktt1GE1jGP0-8" target="QrAsHvjf3ktt1GE1jGP0-1">
          <mxGeometry relative="1" as="geometry" />
        </mxCell>
        <mxCell id="QrAsHvjf3ktt1GE1jGP0-8" value="Mechanical parts &amp;amp; antenna" style="rounded=0;whiteSpace=wrap;html=1;" vertex="1" parent="1">
          <mxGeometry x="-960" y="280" width="120" height="60" as="geometry" />
        </mxCell>
        <mxCell id="QrAsHvjf3ktt1GE1jGP0-9" value="Compute + GHz wireless" style="rounded=0;whiteSpace=wrap;html=1;" vertex="1" parent="1">
          <mxGeometry y="260" width="120" height="60" as="geometry" />
        </mxCell>
        <mxCell id="QrAsHvjf3ktt1GE1jGP0-33" style="edgeStyle=orthogonalEdgeStyle;rounded=0;orthogonalLoop=1;jettySize=auto;html=1;exitX=1;exitY=0.5;exitDx=0;exitDy=0;entryX=1;entryY=0.25;entryDx=0;entryDy=0;" edge="1" parent="1" source="QrAsHvjf3ktt1GE1jGP0-10" target="QrAsHvjf3ktt1GE1jGP0-29">
          <mxGeometry relative="1" as="geometry">
            <Array as="points">
              <mxPoint x="140" y="160" />
              <mxPoint x="140" y="155" />
            </Array>
          </mxGeometry>
        </mxCell>
        <mxCell id="QrAsHvjf3ktt1GE1jGP0-36" style="edgeStyle=orthogonalEdgeStyle;rounded=0;orthogonalLoop=1;jettySize=auto;html=1;exitX=0.5;exitY=1;exitDx=0;exitDy=0;entryX=0.5;entryY=0;entryDx=0;entryDy=0;" edge="1" parent="1" source="QrAsHvjf3ktt1GE1jGP0-10" target="QrAsHvjf3ktt1GE1jGP0-9">
          <mxGeometry relative="1" as="geometry" />
        </mxCell>
        <mxCell id="QrAsHvjf3ktt1GE1jGP0-37" style="edgeStyle=orthogonalEdgeStyle;rounded=0;orthogonalLoop=1;jettySize=auto;html=1;exitX=0;exitY=0.5;exitDx=0;exitDy=0;entryX=0;entryY=0.5;entryDx=0;entryDy=0;" edge="1" parent="1" source="QrAsHvjf3ktt1GE1jGP0-10" target="QrAsHvjf3ktt1GE1jGP0-13">
          <mxGeometry relative="1" as="geometry">
            <Array as="points">
              <mxPoint x="-40" y="160" />
              <mxPoint x="-40" y="110" />
              <mxPoint x="-230" y="110" />
              <mxPoint x="-230" y="290" />
            </Array>
          </mxGeometry>
        </mxCell>
        <mxCell id="QrAsHvjf3ktt1GE1jGP0-38" style="edgeStyle=orthogonalEdgeStyle;rounded=0;orthogonalLoop=1;jettySize=auto;html=1;exitX=0;exitY=0.5;exitDx=0;exitDy=0;entryX=1;entryY=0.5;entryDx=0;entryDy=0;" edge="1" parent="1" source="QrAsHvjf3ktt1GE1jGP0-10" target="QrAsHvjf3ktt1GE1jGP0-16">
          <mxGeometry relative="1" as="geometry" />
        </mxCell>
        <mxCell id="QrAsHvjf3ktt1GE1jGP0-10" value="Power System" style="rounded=0;whiteSpace=wrap;html=1;" vertex="1" parent="1">
          <mxGeometry y="130" width="120" height="60" as="geometry" />
        </mxCell>
        <mxCell id="QrAsHvjf3ktt1GE1jGP0-43" style="edgeStyle=orthogonalEdgeStyle;rounded=0;orthogonalLoop=1;jettySize=auto;html=1;exitX=1;exitY=0.5;exitDx=0;exitDy=0;entryX=0.75;entryY=0;entryDx=0;entryDy=0;" edge="1" parent="1" source="QrAsHvjf3ktt1GE1jGP0-11" target="QrAsHvjf3ktt1GE1jGP0-30">
          <mxGeometry relative="1" as="geometry">
            <Array as="points">
              <mxPoint x="130" y="480" />
              <mxPoint x="130" y="410" />
              <mxPoint x="68" y="410" />
            </Array>
          </mxGeometry>
        </mxCell>
        <mxCell id="QrAsHvjf3ktt1GE1jGP0-11" value="RF Module" style="rounded=0;whiteSpace=wrap;html=1;" vertex="1" parent="1">
          <mxGeometry x="-10" y="450" width="120" height="60" as="geometry" />
        </mxCell>
        <mxCell id="QrAsHvjf3ktt1GE1jGP0-51" style="edgeStyle=orthogonalEdgeStyle;rounded=0;orthogonalLoop=1;jettySize=auto;html=1;exitX=0.5;exitY=1;exitDx=0;exitDy=0;entryX=0.5;entryY=1;entryDx=0;entryDy=0;" edge="1" parent="1" source="QrAsHvjf3ktt1GE1jGP0-12" target="QrAsHvjf3ktt1GE1jGP0-31">
          <mxGeometry relative="1" as="geometry">
            <Array as="points">
              <mxPoint x="50" y="760" />
              <mxPoint x="-35" y="760" />
            </Array>
          </mxGeometry>
        </mxCell>
        <mxCell id="QrAsHvjf3ktt1GE1jGP0-12" value="RFID/NFC module" style="rounded=0;whiteSpace=wrap;html=1;" vertex="1" parent="1">
          <mxGeometry x="-10" y="675" width="120" height="60" as="geometry" />
        </mxCell>
        <mxCell id="QrAsHvjf3ktt1GE1jGP0-47" style="edgeStyle=orthogonalEdgeStyle;rounded=0;orthogonalLoop=1;jettySize=auto;html=1;exitX=1;exitY=0.5;exitDx=0;exitDy=0;entryX=0;entryY=0.5;entryDx=0;entryDy=0;" edge="1" parent="1" source="QrAsHvjf3ktt1GE1jGP0-13" target="QrAsHvjf3ktt1GE1jGP0-9">
          <mxGeometry relative="1" as="geometry" />
        </mxCell>
        <mxCell id="QrAsHvjf3ktt1GE1jGP0-13" value="User Interface system (serial, display, button)" style="rounded=0;whiteSpace=wrap;html=1;" vertex="1" parent="1">
          <mxGeometry x="-210" y="260" width="120" height="60" as="geometry" />
        </mxCell>
        <mxCell id="QrAsHvjf3ktt1GE1jGP0-44" style="edgeStyle=orthogonalEdgeStyle;rounded=0;orthogonalLoop=1;jettySize=auto;html=1;exitX=1;exitY=0.5;exitDx=0;exitDy=0;entryX=0.75;entryY=0;entryDx=0;entryDy=0;" edge="1" parent="1" source="QrAsHvjf3ktt1GE1jGP0-14" target="QrAsHvjf3ktt1GE1jGP0-30">
          <mxGeometry relative="1" as="geometry">
            <Array as="points">
              <mxPoint x="-40" y="480" />
              <mxPoint x="-40" y="410" />
              <mxPoint x="68" y="410" />
            </Array>
          </mxGeometry>
        </mxCell>
        <mxCell id="QrAsHvjf3ktt1GE1jGP0-14" value="GPIO Module&amp;nbsp;&lt;div&gt;(IR, GPIO)&lt;/div&gt;" style="rounded=0;whiteSpace=wrap;html=1;" vertex="1" parent="1">
          <mxGeometry x="-180" y="450" width="120" height="60" as="geometry" />
        </mxCell>
        <mxCell id="QrAsHvjf3ktt1GE1jGP0-50" style="edgeStyle=orthogonalEdgeStyle;rounded=0;orthogonalLoop=1;jettySize=auto;html=1;exitX=0.5;exitY=1;exitDx=0;exitDy=0;entryX=0.5;entryY=1;entryDx=0;entryDy=0;" edge="1" parent="1" source="QrAsHvjf3ktt1GE1jGP0-15" target="QrAsHvjf3ktt1GE1jGP0-31">
          <mxGeometry relative="1" as="geometry">
            <Array as="points">
              <mxPoint x="-120" y="760" />
              <mxPoint x="-35" y="760" />
            </Array>
          </mxGeometry>
        </mxCell>
        <mxCell id="QrAsHvjf3ktt1GE1jGP0-15" value="Storage system" style="rounded=0;whiteSpace=wrap;html=1;" vertex="1" parent="1">
          <mxGeometry x="-180" y="675" width="120" height="60" as="geometry" />
        </mxCell>
        <mxCell id="QrAsHvjf3ktt1GE1jGP0-39" style="edgeStyle=orthogonalEdgeStyle;rounded=0;orthogonalLoop=1;jettySize=auto;html=1;exitX=0;exitY=0.5;exitDx=0;exitDy=0;entryX=0;entryY=0.25;entryDx=0;entryDy=0;" edge="1" parent="1" source="QrAsHvjf3ktt1GE1jGP0-16" target="QrAsHvjf3ktt1GE1jGP0-29">
          <mxGeometry relative="1" as="geometry">
            <Array as="points">
              <mxPoint x="-220" y="160" />
              <mxPoint x="-220" y="155" />
            </Array>
          </mxGeometry>
        </mxCell>
        <mxCell id="QrAsHvjf3ktt1GE1jGP0-16" value="Mechanical parts &amp;amp; antenna" style="rounded=0;whiteSpace=wrap;html=1;" vertex="1" parent="1">
          <mxGeometry x="-210" y="130" width="120" height="60" as="geometry" />
        </mxCell>
        <mxCell id="QrAsHvjf3ktt1GE1jGP0-85" value="" style="edgeStyle=orthogonalEdgeStyle;rounded=0;orthogonalLoop=1;jettySize=auto;html=1;" edge="1" parent="1" source="QrAsHvjf3ktt1GE1jGP0-17" target="QrAsHvjf3ktt1GE1jGP0-84">
          <mxGeometry relative="1" as="geometry" />
        </mxCell>
        <mxCell id="QrAsHvjf3ktt1GE1jGP0-17" value="Compute + GHz wireless" style="rounded=0;whiteSpace=wrap;html=1;" vertex="1" parent="1">
          <mxGeometry x="390" y="95" width="120" height="60" as="geometry" />
        </mxCell>
        <mxCell id="QrAsHvjf3ktt1GE1jGP0-89" value="" style="edgeStyle=orthogonalEdgeStyle;rounded=0;orthogonalLoop=1;jettySize=auto;html=1;" edge="1" parent="1" source="QrAsHvjf3ktt1GE1jGP0-18" target="QrAsHvjf3ktt1GE1jGP0-88">
          <mxGeometry relative="1" as="geometry" />
        </mxCell>
        <mxCell id="QrAsHvjf3ktt1GE1jGP0-18" value="Power System" style="rounded=0;whiteSpace=wrap;html=1;" vertex="1" parent="1">
          <mxGeometry x="390" y="215" width="120" height="60" as="geometry" />
        </mxCell>
        <mxCell id="QrAsHvjf3ktt1GE1jGP0-94" value="" style="edgeStyle=orthogonalEdgeStyle;rounded=0;orthogonalLoop=1;jettySize=auto;html=1;" edge="1" parent="1" source="QrAsHvjf3ktt1GE1jGP0-19" target="QrAsHvjf3ktt1GE1jGP0-92">
          <mxGeometry relative="1" as="geometry" />
        </mxCell>
        <mxCell id="QrAsHvjf3ktt1GE1jGP0-19" value="RF Module" style="rounded=0;whiteSpace=wrap;html=1;" vertex="1" parent="1">
          <mxGeometry x="390" y="335" width="120" height="60" as="geometry" />
        </mxCell>
        <mxCell id="QrAsHvjf3ktt1GE1jGP0-126" value="" style="edgeStyle=orthogonalEdgeStyle;rounded=0;orthogonalLoop=1;jettySize=auto;html=1;" edge="1" parent="1" source="QrAsHvjf3ktt1GE1jGP0-20" target="QrAsHvjf3ktt1GE1jGP0-121">
          <mxGeometry relative="1" as="geometry" />
        </mxCell>
        <mxCell id="QrAsHvjf3ktt1GE1jGP0-20" value="RFID/NFC module" style="rounded=0;whiteSpace=wrap;html=1;" vertex="1" parent="1">
          <mxGeometry x="390" y="685" width="120" height="60" as="geometry" />
        </mxCell>
        <mxCell id="QrAsHvjf3ktt1GE1jGP0-21" value="User Interface system (serial, display, button)" style="rounded=0;whiteSpace=wrap;html=1;" vertex="1" parent="1">
          <mxGeometry x="390" y="455" width="120" height="60" as="geometry" />
        </mxCell>
        <mxCell id="QrAsHvjf3ktt1GE1jGP0-110" value="" style="edgeStyle=orthogonalEdgeStyle;rounded=0;orthogonalLoop=1;jettySize=auto;html=1;" edge="1" parent="1" source="QrAsHvjf3ktt1GE1jGP0-22" target="QrAsHvjf3ktt1GE1jGP0-109">
          <mxGeometry relative="1" as="geometry" />
        </mxCell>
        <mxCell id="QrAsHvjf3ktt1GE1jGP0-22" value="GPIO Module&amp;nbsp;&lt;div&gt;(IR, GPIO)&lt;/div&gt;" style="rounded=0;whiteSpace=wrap;html=1;" vertex="1" parent="1">
          <mxGeometry x="390" y="565" width="120" height="60" as="geometry" />
        </mxCell>
        <mxCell id="QrAsHvjf3ktt1GE1jGP0-124" value="" style="edgeStyle=orthogonalEdgeStyle;rounded=0;orthogonalLoop=1;jettySize=auto;html=1;" edge="1" parent="1" source="QrAsHvjf3ktt1GE1jGP0-23" target="QrAsHvjf3ktt1GE1jGP0-122">
          <mxGeometry relative="1" as="geometry" />
        </mxCell>
        <mxCell id="QrAsHvjf3ktt1GE1jGP0-23" value="Storage system" style="rounded=0;whiteSpace=wrap;html=1;" vertex="1" parent="1">
          <mxGeometry x="390" y="805" width="120" height="60" as="geometry" />
        </mxCell>
        <mxCell id="QrAsHvjf3ktt1GE1jGP0-118" value="" style="edgeStyle=orthogonalEdgeStyle;rounded=0;orthogonalLoop=1;jettySize=auto;html=1;" edge="1" parent="1" source="QrAsHvjf3ktt1GE1jGP0-24" target="QrAsHvjf3ktt1GE1jGP0-117">
          <mxGeometry relative="1" as="geometry" />
        </mxCell>
        <mxCell id="QrAsHvjf3ktt1GE1jGP0-24" value="Mechanical parts &amp;amp; antenna" style="rounded=0;whiteSpace=wrap;html=1;" vertex="1" parent="1">
          <mxGeometry x="390" y="925" width="120" height="60" as="geometry" />
        </mxCell>
        <mxCell id="QrAsHvjf3ktt1GE1jGP0-54" value="Board 1" style="text;html=1;align=center;verticalAlign=middle;resizable=0;points=[];autosize=1;strokeColor=none;fillColor=none;" vertex="1" parent="1">
          <mxGeometry x="90" y="90" width="70" height="30" as="geometry" />
        </mxCell>
        <mxCell id="QrAsHvjf3ktt1GE1jGP0-55" value="Board 2" style="text;html=1;align=center;verticalAlign=middle;resizable=0;points=[];autosize=1;strokeColor=none;fillColor=none;" vertex="1" parent="1">
          <mxGeometry x="-240" y="390" width="70" height="30" as="geometry" />
        </mxCell>
        <mxCell id="QrAsHvjf3ktt1GE1jGP0-56" value="Board 3" style="text;html=1;align=center;verticalAlign=middle;resizable=0;points=[];autosize=1;strokeColor=none;fillColor=none;" vertex="1" parent="1">
          <mxGeometry x="-240" y="610" width="70" height="30" as="geometry" />
        </mxCell>
        <mxCell id="QrAsHvjf3ktt1GE1jGP0-57" value="&amp;nbsp;Motherboard" style="text;html=1;align=center;verticalAlign=middle;resizable=0;points=[];autosize=1;strokeColor=none;fillColor=none;" vertex="1" parent="1">
          <mxGeometry x="-1030" y="160" width="90" height="30" as="geometry" />
        </mxCell>
        <mxCell id="QrAsHvjf3ktt1GE1jGP0-58" value="data" style="text;html=1;align=center;verticalAlign=middle;resizable=0;points=[];autosize=1;strokeColor=none;fillColor=none;" vertex="1" parent="1">
          <mxGeometry x="-320" y="310" width="50" height="30" as="geometry" />
        </mxCell>
        <mxCell id="QrAsHvjf3ktt1GE1jGP0-59" value="data" style="text;html=1;align=center;verticalAlign=middle;resizable=0;points=[];autosize=1;strokeColor=none;fillColor=none;" vertex="1" parent="1">
          <mxGeometry x="80" y="815" width="50" height="30" as="geometry" />
        </mxCell>
        <mxCell id="QrAsHvjf3ktt1GE1jGP0-62" value="data" style="text;html=1;align=center;verticalAlign=middle;resizable=0;points=[];autosize=1;strokeColor=none;fillColor=none;" vertex="1" parent="1">
          <mxGeometry x="70" y="360" width="50" height="30" as="geometry" />
        </mxCell>
        <mxCell id="QrAsHvjf3ktt1GE1jGP0-63" value="data" style="text;html=1;align=center;verticalAlign=middle;resizable=0;points=[];autosize=1;strokeColor=none;fillColor=none;" vertex="1" parent="1">
          <mxGeometry x="-70" y="260" width="50" height="30" as="geometry" />
        </mxCell>
        <mxCell id="QrAsHvjf3ktt1GE1jGP0-64" value="power" style="text;html=1;align=center;verticalAlign=middle;resizable=0;points=[];autosize=1;strokeColor=none;fillColor=none;" vertex="1" parent="1">
          <mxGeometry x="180" y="210" width="60" height="30" as="geometry" />
        </mxCell>
        <mxCell id="QrAsHvjf3ktt1GE1jGP0-65" value="power" style="text;html=1;align=center;verticalAlign=middle;resizable=0;points=[];autosize=1;strokeColor=none;fillColor=none;" vertex="1" parent="1">
          <mxGeometry x="-75" y="160" width="60" height="30" as="geometry" />
        </mxCell>
        <mxCell id="QrAsHvjf3ktt1GE1jGP0-73" value="power" style="text;html=1;align=center;verticalAlign=middle;resizable=0;points=[];autosize=1;strokeColor=none;fillColor=none;" vertex="1" parent="1">
          <mxGeometry x="-720" y="305" width="60" height="30" as="geometry" />
        </mxCell>
        <mxCell id="QrAsHvjf3ktt1GE1jGP0-74" value="power &amp;amp; data" style="text;html=1;align=center;verticalAlign=middle;resizable=0;points=[];autosize=1;strokeColor=none;fillColor=none;" vertex="1" parent="1">
          <mxGeometry x="-600" y="350" width="90" height="30" as="geometry" />
        </mxCell>
        <mxCell id="QrAsHvjf3ktt1GE1jGP0-75" value="power &amp;amp; data" style="text;html=1;align=center;verticalAlign=middle;resizable=0;points=[];autosize=1;strokeColor=none;fillColor=none;" vertex="1" parent="1">
          <mxGeometry x="-620" y="480" width="90" height="30" as="geometry" />
        </mxCell>
        <mxCell id="QrAsHvjf3ktt1GE1jGP0-76" value="power &amp;amp; data" style="text;html=1;align=center;verticalAlign=middle;resizable=0;points=[];autosize=1;strokeColor=none;fillColor=none;" vertex="1" parent="1">
          <mxGeometry x="-600" y="390" width="90" height="30" as="geometry" />
        </mxCell>
        <mxCell id="QrAsHvjf3ktt1GE1jGP0-77" value="power &amp;amp; data" style="text;html=1;align=center;verticalAlign=middle;resizable=0;points=[];autosize=1;strokeColor=none;fillColor=none;" vertex="1" parent="1">
          <mxGeometry x="-790" y="465" width="90" height="30" as="geometry" />
        </mxCell>
        <mxCell id="QrAsHvjf3ktt1GE1jGP0-78" value="power &amp;amp; data" style="text;html=1;align=center;verticalAlign=middle;resizable=0;points=[];autosize=1;strokeColor=none;fillColor=none;" vertex="1" parent="1">
          <mxGeometry x="-890" y="345" width="90" height="30" as="geometry" />
        </mxCell>
        <mxCell id="QrAsHvjf3ktt1GE1jGP0-79" value="power &amp;amp; data" style="text;html=1;align=center;verticalAlign=middle;resizable=0;points=[];autosize=1;strokeColor=none;fillColor=none;" vertex="1" parent="1">
          <mxGeometry x="-910" y="390" width="90" height="30" as="geometry" />
        </mxCell>
        <mxCell id="QrAsHvjf3ktt1GE1jGP0-82" value="" style="edgeStyle=orthogonalEdgeStyle;rounded=0;orthogonalLoop=1;jettySize=auto;html=1;" edge="1" parent="1" source="QrAsHvjf3ktt1GE1jGP0-81" target="QrAsHvjf3ktt1GE1jGP0-17">
          <mxGeometry relative="1" as="geometry" />
        </mxCell>
        <mxCell id="QrAsHvjf3ktt1GE1jGP0-81" value="Data" style="text;html=1;align=center;verticalAlign=middle;resizable=0;points=[];autosize=1;strokeColor=none;fillColor=none;" vertex="1" parent="1">
          <mxGeometry x="300" y="110" width="50" height="30" as="geometry" />
        </mxCell>
        <mxCell id="QrAsHvjf3ktt1GE1jGP0-86" value="" style="edgeStyle=orthogonalEdgeStyle;rounded=0;orthogonalLoop=1;jettySize=auto;html=1;" edge="1" parent="1" source="QrAsHvjf3ktt1GE1jGP0-83" target="QrAsHvjf3ktt1GE1jGP0-17">
          <mxGeometry relative="1" as="geometry" />
        </mxCell>
        <mxCell id="QrAsHvjf3ktt1GE1jGP0-83" value="Power" style="text;html=1;align=center;verticalAlign=middle;resizable=0;points=[];autosize=1;strokeColor=none;fillColor=none;" vertex="1" parent="1">
          <mxGeometry x="420" y="38" width="60" height="30" as="geometry" />
        </mxCell>
        <mxCell id="QrAsHvjf3ktt1GE1jGP0-84" value="Command" style="text;html=1;align=center;verticalAlign=middle;resizable=0;points=[];autosize=1;strokeColor=none;fillColor=none;" vertex="1" parent="1">
          <mxGeometry x="540" y="110" width="80" height="30" as="geometry" />
        </mxCell>
        <mxCell id="QrAsHvjf3ktt1GE1jGP0-88" value="Power" style="text;html=1;align=center;verticalAlign=middle;resizable=0;points=[];autosize=1;strokeColor=none;fillColor=none;" vertex="1" parent="1">
          <mxGeometry x="540" y="230" width="60" height="30" as="geometry" />
        </mxCell>
        <mxCell id="QrAsHvjf3ktt1GE1jGP0-98" value="" style="edgeStyle=orthogonalEdgeStyle;rounded=0;orthogonalLoop=1;jettySize=auto;html=1;entryX=0.5;entryY=0;entryDx=0;entryDy=0;" edge="1" parent="1" source="QrAsHvjf3ktt1GE1jGP0-90" target="QrAsHvjf3ktt1GE1jGP0-19">
          <mxGeometry relative="1" as="geometry">
            <mxPoint x="430" y="330" as="targetPoint" />
            <Array as="points" />
          </mxGeometry>
        </mxCell>
        <mxCell id="QrAsHvjf3ktt1GE1jGP0-90" value="Power" style="text;html=1;align=center;verticalAlign=middle;resizable=0;points=[];autosize=1;strokeColor=none;fillColor=none;" vertex="1" parent="1">
          <mxGeometry x="420" y="290" width="60" height="30" as="geometry" />
        </mxCell>
        <mxCell id="QrAsHvjf3ktt1GE1jGP0-93" value="" style="edgeStyle=orthogonalEdgeStyle;rounded=0;orthogonalLoop=1;jettySize=auto;html=1;" edge="1" parent="1" source="QrAsHvjf3ktt1GE1jGP0-91" target="QrAsHvjf3ktt1GE1jGP0-19">
          <mxGeometry relative="1" as="geometry" />
        </mxCell>
        <mxCell id="QrAsHvjf3ktt1GE1jGP0-91" value="Command" style="text;html=1;align=center;verticalAlign=middle;resizable=0;points=[];autosize=1;strokeColor=none;fillColor=none;" vertex="1" parent="1">
          <mxGeometry x="290" y="350" width="80" height="30" as="geometry" />
        </mxCell>
        <mxCell id="QrAsHvjf3ktt1GE1jGP0-92" value="Data" style="text;html=1;align=center;verticalAlign=middle;resizable=0;points=[];autosize=1;strokeColor=none;fillColor=none;" vertex="1" parent="1">
          <mxGeometry x="540" y="350" width="50" height="30" as="geometry" />
        </mxCell>
        <mxCell id="QrAsHvjf3ktt1GE1jGP0-102" value="" style="edgeStyle=orthogonalEdgeStyle;rounded=0;orthogonalLoop=1;jettySize=auto;html=1;" edge="1" parent="1" source="QrAsHvjf3ktt1GE1jGP0-101" target="QrAsHvjf3ktt1GE1jGP0-21">
          <mxGeometry relative="1" as="geometry" />
        </mxCell>
        <mxCell id="QrAsHvjf3ktt1GE1jGP0-101" value="Data" style="text;html=1;align=center;verticalAlign=middle;resizable=0;points=[];autosize=1;strokeColor=none;fillColor=none;" vertex="1" parent="1">
          <mxGeometry x="305" y="470" width="50" height="30" as="geometry" />
        </mxCell>
        <mxCell id="QrAsHvjf3ktt1GE1jGP0-104" value="" style="edgeStyle=orthogonalEdgeStyle;rounded=0;orthogonalLoop=1;jettySize=auto;html=1;" edge="1" parent="1" source="QrAsHvjf3ktt1GE1jGP0-103" target="QrAsHvjf3ktt1GE1jGP0-21">
          <mxGeometry relative="1" as="geometry" />
        </mxCell>
        <mxCell id="QrAsHvjf3ktt1GE1jGP0-103" value="Power" style="text;html=1;align=center;verticalAlign=middle;resizable=0;points=[];autosize=1;strokeColor=none;fillColor=none;" vertex="1" parent="1">
          <mxGeometry x="420" y="410" width="60" height="30" as="geometry" />
        </mxCell>
        <mxCell id="QrAsHvjf3ktt1GE1jGP0-106" value="" style="edgeStyle=orthogonalEdgeStyle;rounded=0;orthogonalLoop=1;jettySize=auto;html=1;" edge="1" parent="1" source="QrAsHvjf3ktt1GE1jGP0-105" target="QrAsHvjf3ktt1GE1jGP0-22">
          <mxGeometry relative="1" as="geometry" />
        </mxCell>
        <mxCell id="QrAsHvjf3ktt1GE1jGP0-105" value="Power" style="text;html=1;align=center;verticalAlign=middle;resizable=0;points=[];autosize=1;strokeColor=none;fillColor=none;" vertex="1" parent="1">
          <mxGeometry x="420" y="520" width="60" height="30" as="geometry" />
        </mxCell>
        <mxCell id="QrAsHvjf3ktt1GE1jGP0-108" value="" style="edgeStyle=orthogonalEdgeStyle;rounded=0;orthogonalLoop=1;jettySize=auto;html=1;" edge="1" parent="1" source="QrAsHvjf3ktt1GE1jGP0-107" target="QrAsHvjf3ktt1GE1jGP0-22">
          <mxGeometry relative="1" as="geometry" />
        </mxCell>
        <mxCell id="QrAsHvjf3ktt1GE1jGP0-107" value="Data" style="text;html=1;align=center;verticalAlign=middle;resizable=0;points=[];autosize=1;strokeColor=none;fillColor=none;" vertex="1" parent="1">
          <mxGeometry x="320" y="580" width="50" height="30" as="geometry" />
        </mxCell>
        <mxCell id="QrAsHvjf3ktt1GE1jGP0-109" value="Data" style="text;html=1;align=center;verticalAlign=middle;resizable=0;points=[];autosize=1;strokeColor=none;fillColor=none;" vertex="1" parent="1">
          <mxGeometry x="530" y="580" width="50" height="30" as="geometry" />
        </mxCell>
        <mxCell id="QrAsHvjf3ktt1GE1jGP0-111" value="Power" style="text;html=1;align=center;verticalAlign=middle;resizable=0;points=[];autosize=1;strokeColor=none;fillColor=none;" vertex="1" parent="1">
          <mxGeometry x="420" y="640" width="60" height="30" as="geometry" />
        </mxCell>
        <mxCell id="QrAsHvjf3ktt1GE1jGP0-113" value="" style="edgeStyle=orthogonalEdgeStyle;rounded=0;orthogonalLoop=1;jettySize=auto;html=1;" edge="1" parent="1" source="QrAsHvjf3ktt1GE1jGP0-112" target="QrAsHvjf3ktt1GE1jGP0-23">
          <mxGeometry relative="1" as="geometry" />
        </mxCell>
        <mxCell id="QrAsHvjf3ktt1GE1jGP0-112" value="Power" style="text;html=1;align=center;verticalAlign=middle;resizable=0;points=[];autosize=1;strokeColor=none;fillColor=none;" vertex="1" parent="1">
          <mxGeometry x="420" y="760" width="60" height="30" as="geometry" />
        </mxCell>
        <mxCell id="QrAsHvjf3ktt1GE1jGP0-116" style="edgeStyle=orthogonalEdgeStyle;rounded=0;orthogonalLoop=1;jettySize=auto;html=1;exitX=0.5;exitY=0;exitDx=0;exitDy=0;entryX=0.503;entryY=0.994;entryDx=0;entryDy=0;entryPerimeter=0;startArrow=classic;startFill=1;endArrow=none;endFill=0;" edge="1" parent="1" source="QrAsHvjf3ktt1GE1jGP0-20" target="QrAsHvjf3ktt1GE1jGP0-111">
          <mxGeometry relative="1" as="geometry" />
        </mxCell>
        <mxCell id="QrAsHvjf3ktt1GE1jGP0-117" value="Data" style="text;html=1;align=center;verticalAlign=middle;resizable=0;points=[];autosize=1;strokeColor=none;fillColor=none;" vertex="1" parent="1">
          <mxGeometry x="545" y="940" width="50" height="30" as="geometry" />
        </mxCell>
        <mxCell id="QrAsHvjf3ktt1GE1jGP0-123" value="" style="edgeStyle=orthogonalEdgeStyle;rounded=0;orthogonalLoop=1;jettySize=auto;html=1;" edge="1" parent="1" source="QrAsHvjf3ktt1GE1jGP0-119" target="QrAsHvjf3ktt1GE1jGP0-23">
          <mxGeometry relative="1" as="geometry">
            <Array as="points">
              <mxPoint x="380" y="835" />
              <mxPoint x="380" y="835" />
            </Array>
          </mxGeometry>
        </mxCell>
        <mxCell id="QrAsHvjf3ktt1GE1jGP0-119" value="Command" style="text;html=1;align=center;verticalAlign=middle;resizable=0;points=[];autosize=1;strokeColor=none;fillColor=none;" vertex="1" parent="1">
          <mxGeometry x="290" y="820" width="80" height="30" as="geometry" />
        </mxCell>
        <mxCell id="QrAsHvjf3ktt1GE1jGP0-125" value="" style="edgeStyle=orthogonalEdgeStyle;rounded=0;orthogonalLoop=1;jettySize=auto;html=1;" edge="1" parent="1" source="QrAsHvjf3ktt1GE1jGP0-120" target="QrAsHvjf3ktt1GE1jGP0-20">
          <mxGeometry relative="1" as="geometry" />
        </mxCell>
        <mxCell id="QrAsHvjf3ktt1GE1jGP0-120" value="Command" style="text;html=1;align=center;verticalAlign=middle;resizable=0;points=[];autosize=1;strokeColor=none;fillColor=none;" vertex="1" parent="1">
          <mxGeometry x="290" y="700" width="80" height="30" as="geometry" />
        </mxCell>
        <mxCell id="QrAsHvjf3ktt1GE1jGP0-121" value="Data" style="text;html=1;align=center;verticalAlign=middle;resizable=0;points=[];autosize=1;strokeColor=none;fillColor=none;" vertex="1" parent="1">
          <mxGeometry x="530" y="700" width="50" height="30" as="geometry" />
        </mxCell>
        <mxCell id="QrAsHvjf3ktt1GE1jGP0-122" value="Data" style="text;html=1;align=center;verticalAlign=middle;resizable=0;points=[];autosize=1;strokeColor=none;fillColor=none;" vertex="1" parent="1">
          <mxGeometry x="530" y="820" width="50" height="30" as="geometry" />
        </mxCell>
      </root>
    </mxGraphModel>
  </diagram>
</mxfile>
